<svg xmlns="http://www.w3.org/2000/svg" viewBox="0 0 1600 900" preserveAspectRatio="xMidYMax slice">
<defs>
<linearGradient id="sky" x1="0" y1="0" x2="0" y2="1"><stop offset="0" stop-color="#05060b"/><stop offset=".6" stop-color="#0c0a11"/><stop offset=".9" stop-color="#18100f"/><stop offset="1" stop-color="#1f130d"/></linearGradient>
<radialGradient id="amb" cx=".5" cy="1" r=".9"><stop offset="0" stop-color="#b8541c" stop-opacity=".26"/><stop offset=".5" stop-color="#7a2f12" stop-opacity=".1"/><stop offset="1" stop-color="#7a2f12" stop-opacity="0"/></radialGradient>
<linearGradient id="gd" x1="0" y1="0" x2="0" y2="1"><stop offset="0" stop-color="#140d0b"/><stop offset="1" stop-color="#070506"/></linearGradient>
</defs>
<rect width="1600" height="900" fill="url(#sky)"/>
<circle cx="946" cy="453" r="1.6" fill="#ffe9c9" opacity="0.5"/><circle cx="1060" cy="447" r="1" fill="#ffe9c9" opacity="0.35"/><circle cx="1068" cy="253" r="1" fill="#ffe9c9" opacity="0.35"/><circle cx="934" cy="165" r="1" fill="#ffe9c9" opacity="0.35"/><circle cx="1123" cy="424" r="1" fill="#ffe9c9" opacity="0.7"/><circle cx="831" cy="241" r="1" fill="#ffe9c9" opacity="0.7"/><circle cx="50" cy="435" r="1" fill="#ffe9c9" opacity="0.35"/><circle cx="93" cy="107" r="1" fill="#ffe9c9" opacity="0.7"/><circle cx="81" cy="408" r="1.6" fill="#ffe9c9" opacity="0.5"/><circle cx="922" cy="312" r="1" fill="#ffe9c9" opacity="0.7"/><circle cx="498" cy="337" r="1.2" fill="#ffe9c9" opacity="0.5"/><circle cx="29" cy="349" r="1" fill="#ffe9c9" opacity="0.5"/><circle cx="1361" cy="152" r="1.6" fill="#ffe9c9" opacity="0.7"/><circle cx="190" cy="372" r="1.2" fill="#ffe9c9" opacity="0.5"/><circle cx="1572" cy="127" r="1.2" fill="#ffe9c9" opacity="0.35"/><circle cx="163" cy="298" r="1" fill="#ffe9c9" opacity="0.5"/><circle cx="240" cy="443" r="1.2" fill="#ffe9c9" opacity="0.5"/><circle cx="156" cy="18" r="1" fill="#ffe9c9" opacity="0.35"/><circle cx="449" cy="36" r="1.6" fill="#ffe9c9" opacity="0.5"/><circle cx="1471" cy="213" r="1.6" fill="#ffe9c9" opacity="0.35"/><circle cx="1179" cy="332" r="1" fill="#ffe9c9" opacity="0.7"/><circle cx="572" cy="182" r="1" fill="#ffe9c9" opacity="0.5"/><circle cx="701" cy="17" r="1.6" fill="#ffe9c9" opacity="0.35"/><circle cx="295" cy="136" r="1" fill="#ffe9c9" opacity="0.35"/><circle cx="142" cy="248" r="1.6" fill="#ffe9c9" opacity="0.35"/><circle cx="1416" cy="296" r="1" fill="#ffe9c9" opacity="0.5"/><circle cx="1062" cy="107" r="1" fill="#ffe9c9" opacity="0.5"/><circle cx="1338" cy="206" r="1" fill="#ffe9c9" opacity="0.5"/><circle cx="881" cy="118" r="1" fill="#ffe9c9" opacity="0.5"/><circle cx="1233" cy="165" r="1" fill="#ffe9c9" opacity="0.35"/><circle cx="403" cy="211" r="1" fill="#ffe9c9" opacity="0.35"/><circle cx="319" cy="119" r="1.6" fill="#ffe9c9" opacity="0.5"/><circle cx="39" cy="405" r="1.2" fill="#ffe9c9" opacity="0.5"/><circle cx="810" cy="47" r="1" fill="#ffe9c9" opacity="0.35"/><circle cx="447" cy="308" r="1" fill="#ffe9c9" opacity="0.35"/><circle cx="1251" cy="198" r="1.2" fill="#ffe9c9" opacity="0.7"/><circle cx="948" cy="75" r="1.6" fill="#ffe9c9" opacity="0.7"/><circle cx="297" cy="453" r="1.6" fill="#ffe9c9" opacity="0.35"/><circle cx="1304" cy="88" r="1.2" fill="#ffe9c9" opacity="0.35"/><circle cx="1270" cy="137" r="1" fill="#ffe9c9" opacity="0.35"/><circle cx="1534" cy="332" r="1" fill="#ffe9c9" opacity="0.7"/><circle cx="815" cy="257" r="1" fill="#ffe9c9" opacity="0.5"/><circle cx="117" cy="63" r="1" fill="#ffe9c9" opacity="0.35"/><circle cx="1069" cy="140" r="1" fill="#ffe9c9" opacity="0.7"/><circle cx="1462" cy="210" r="1.2" fill="#ffe9c9" opacity="0.5"/><circle cx="1241" cy="261" r="1.2" fill="#ffe9c9" opacity="0.7"/><circle cx="379" cy="378" r="1" fill="#ffe9c9" opacity="0.35"/><circle cx="487" cy="255" r="1" fill="#ffe9c9" opacity="0.5"/><circle cx="454" cy="114" r="1" fill="#ffe9c9" opacity="0.35"/><circle cx="571" cy="220" r="1.6" fill="#ffe9c9" opacity="0.35"/><circle cx="143" cy="33" r="1" fill="#ffe9c9" opacity="0.5"/><circle cx="775" cy="281" r="1" fill="#ffe9c9" opacity="0.35"/><circle cx="761" cy="80" r="1.6" fill="#ffe9c9" opacity="0.5"/><circle cx="1365" cy="385" r="1" fill="#ffe9c9" opacity="0.7"/><circle cx="91" cy="19" r="1.6" fill="#ffe9c9" opacity="0.5"/><circle cx="1455" cy="169" r="1" fill="#ffe9c9" opacity="0.35"/><circle cx="1245" cy="335" r="1" fill="#ffe9c9" opacity="0.5"/><circle cx="157" cy="384" r="1.2" fill="#ffe9c9" opacity="0.5"/><circle cx="299" cy="47" r="1" fill="#ffe9c9" opacity="0.5"/><circle cx="1138" cy="198" r="1" fill="#ffe9c9" opacity="0.7"/>
<ellipse cx="800" cy="900" rx="900" ry="520" fill="url(#amb)"/>
<g fill="#0d0d14"><rect x="234" y="780" width="12" height="130"/><polygon points="240,570.0 206.4,669.0 273.6,669.0"/><polygon points="240,622.8 197.3,721.8 282.7,721.8"/><polygon points="240,675.6 188.2,774.6 291.8,774.6"/><polygon points="240,728.4 179.1,827.4 300.9,827.4"/><polygon points="240,781.2 170.0,880.2 310.0,880.2"/></g><g fill="#0d0d14"><rect x="514" y="780" width="12" height="130"/><polygon points="520,630.0 492.16,711.0 547.84,711.0"/><polygon points="520,673.2 484.62,754.2 555.38,754.2"/><polygon points="520,716.4 477.08,797.4 562.92,797.4"/><polygon points="520,759.6 469.54,840.6 570.46,840.6"/><polygon points="520,802.8 462.0,883.8 578.0,883.8"/></g><g fill="#0d0d14"><rect x="1084" y="780" width="12" height="130"/><polygon points="1090,620.0 1061.2,704.0 1118.8,704.0"/><polygon points="1090,664.8 1053.4,748.8 1126.6,748.8"/><polygon points="1090,709.6 1045.6,793.6 1134.4,793.6"/><polygon points="1090,754.4 1037.8,838.4 1142.2,838.4"/><polygon points="1090,799.2 1030.0,883.2 1150.0,883.2"/></g><g fill="#0d0d14"><rect x="1354" y="780" width="12" height="130"/><polygon points="1360,560.0 1325.44,662.0 1394.56,662.0"/><polygon points="1360,614.4 1316.08,716.4 1403.92,716.4"/><polygon points="1360,668.8 1306.72,770.8 1413.28,770.8"/><polygon points="1360,723.2 1297.36,825.2 1422.64,825.2"/><polygon points="1360,777.6 1288.0,879.6 1432.0,879.6"/></g><g fill="#080a10"><rect x="54" y="780" width="12" height="130"/><polygon points="60,380.0 2.4000000000000057,536.0 117.6,536.0"/><polygon points="60,463.2 -13.200000000000003,619.2 133.2,619.2"/><polygon points="60,546.4 -28.799999999999997,702.4 148.8,702.4"/><polygon points="60,629.6 -44.400000000000006,785.6 164.4,785.6"/><polygon points="60,712.8 -60.0,868.8 180.0,868.8"/></g><g fill="#080a10"><rect x="184" y="780" width="12" height="130"/><polygon points="190,470.0 142.0,599.0 238.0,599.0"/><polygon points="190,538.8 129.0,667.8 251.0,667.8"/><polygon points="190,607.6 116.0,736.6 264.0,736.6"/><polygon points="190,676.4 103.0,805.4 277.0,805.4"/><polygon points="190,745.2 90.0,874.2 290.0,874.2"/></g><g fill="#080a10"><rect x="324" y="780" width="12" height="130"/><polygon points="330,540.0 291.6,648.0 368.4,648.0"/><polygon points="330,597.6 281.2,705.6 378.8,705.6"/><polygon points="330,655.2 270.8,763.2 389.2,763.2"/><polygon points="330,712.8 260.4,820.8 399.6,820.8"/><polygon points="330,770.4 250.0,878.4 410.0,878.4"/></g><g fill="#080a10"><rect x="1534" y="780" width="12" height="130"/><polygon points="1540,360.0 1480.0,522.0 1600.0,522.0"/><polygon points="1540,446.4 1463.75,608.4 1616.25,608.4"/><polygon points="1540,532.8 1447.5,694.8 1632.5,694.8"/><polygon points="1540,619.2 1431.25,781.2 1648.75,781.2"/><polygon points="1540,705.6 1415.0,867.6 1665.0,867.6"/></g><g fill="#080a10"><rect x="1404" y="780" width="12" height="130"/><polygon points="1410,450.0 1359.6,585.0 1460.4,585.0"/><polygon points="1410,522.0 1345.95,657.0 1474.05,657.0"/><polygon points="1410,594.0 1332.3,729.0 1487.7,729.0"/><polygon points="1410,666.0 1318.65,801.0 1501.35,801.0"/><polygon points="1410,738.0 1305.0,873.0 1515.0,873.0"/></g><g fill="#080a10"><rect x="1264" y="780" width="12" height="130"/><polygon points="1270,530.0 1230.64,641.0 1309.36,641.0"/><polygon points="1270,589.2 1219.98,700.2 1320.02,700.2"/><polygon points="1270,648.4 1209.32,759.4 1330.68,759.4"/><polygon points="1270,707.6 1198.66,818.6 1341.34,818.6"/><polygon points="1270,766.8 1188.0,877.8 1352.0,877.8"/></g>
<path d="M0 828 Q400 800 800 812 T1600 818 V900 H0Z" fill="url(#gd)"/>
</svg>