<svg xmlns="http://www.w3.org/2000/svg" viewBox="0 0 400 400"><line x1="-17.6" y1="-20.9" x2="-21.0" y2="3.3" stroke="#d6c6ee" stroke-width="0.9" stroke-linecap="round" opacity="0.30"/><line x1="-17.6" y1="379.1" x2="-21.0" y2="403.3" stroke="#d6c6ee" stroke-width="1.3" stroke-linecap="round" opacity="0.27"/><line x1="-17.6" y1="779.1" x2="-21.0" y2="803.3" stroke="#d6c6ee" stroke-width="1.0" stroke-linecap="round" opacity="0.25"/><line x1="382.4" y1="-20.9" x2="379.0" y2="3.3" stroke="#d6c6ee" stroke-width="1.2" stroke-linecap="round" opacity="0.25"/><line x1="382.4" y1="379.1" x2="379.0" y2="403.3" stroke="#d6c6ee" stroke-width="0.9" stroke-linecap="round" opacity="0.21"/><line x1="382.4" y1="779.1" x2="379.0" y2="803.3" stroke="#d6c6ee" stroke-width="1.1" stroke-linecap="round" opacity="0.28"/><line x1="782.4" y1="-20.9" x2="779.0" y2="3.3" stroke="#d6c6ee" stroke-width="1.5" stroke-linecap="round" opacity="0.33"/><line x1="782.4" y1="379.1" x2="779.0" y2="403.3" stroke="#d6c6ee" stroke-width="1.2" stroke-linecap="round" opacity="0.22"/><line x1="782.4" y1="779.1" x2="779.0" y2="803.3" stroke="#d6c6ee" stroke-width="1.0" stroke-linecap="round" opacity="0.13"/><line x1="-389.0" y1="-214.0" x2="-393.8" y2="-179.9" stroke="#d6c6ee" stroke-width="1.1" stroke-linecap="round" opacity="0.32"/><line x1="-389.0" y1="186.0" x2="-393.8" y2="220.1" stroke="#d6c6ee" stroke-width="1.2" stroke-linecap="round" opacity="0.24"/><line x1="-389.0" y1="586.0" x2="-393.8" y2="620.1" stroke="#d6c6ee" stroke-width="1.0" stroke-linecap="round" opacity="0.13"/><line x1="11.0" y1="-214.0" x2="6.2" y2="-179.9" stroke="#d6c6ee" stroke-width="1.0" stroke-linecap="round" opacity="0.15"/><line x1="11.0" y1="186.0" x2="6.2" y2="220.1" stroke="#d6c6ee" stroke-width="1.2" stroke-linecap="round" opacity="0.34"/><line x1="11.0" y1="586.0" x2="6.2" y2="620.1" stroke="#d6c6ee" stroke-width="1.3" stroke-linecap="round" opacity="0.16"/><line x1="411.0" y1="-214.0" x2="406.2" y2="-179.9" stroke="#d6c6ee" stroke-width="1.4" stroke-linecap="round" opacity="0.30"/><line x1="411.0" y1="186.0" x2="406.2" y2="220.1" stroke="#d6c6ee" stroke-width="1.3" stroke-linecap="round" opacity="0.32"/><line x1="411.0" y1="586.0" x2="406.2" y2="620.1" stroke="#d6c6ee" stroke-width="1.3" stroke-linecap="round" opacity="0.29"/><line x1="-258.5" y1="-7.6" x2="-266.7" y2="50.9" stroke="#d6c6ee" stroke-width="0.9" stroke-linecap="round" opacity="0.29"/><line x1="-258.5" y1="392.4" x2="-266.7" y2="450.9" stroke="#d6c6ee" stroke-width="1.3" stroke-linecap="round" opacity="0.22"/><line x1="-258.5" y1="792.4" x2="-266.7" y2="850.9" stroke="#d6c6ee" stroke-width="1.2" stroke-linecap="round" opacity="0.23"/><line x1="141.5" y1="-7.6" x2="133.3" y2="50.9" stroke="#d6c6ee" stroke-width="1.4" stroke-linecap="round" opacity="0.23"/><line x1="141.5" y1="392.4" x2="133.3" y2="450.9" stroke="#d6c6ee" stroke-width="1.4" stroke-linecap="round" opacity="0.20"/><line x1="141.5" y1="792.4" x2="133.3" y2="850.9" stroke="#d6c6ee" stroke-width="1.4" stroke-linecap="round" opacity="0.32"/><line x1="541.5" y1="-7.6" x2="533.3" y2="50.9" stroke="#d6c6ee" stroke-width="1.1" stroke-linecap="round" opacity="0.24"/><line x1="541.5" y1="392.4" x2="533.3" y2="450.9" stroke="#d6c6ee" stroke-width="1.4" stroke-linecap="round" opacity="0.28"/><line x1="541.5" y1="792.4" x2="533.3" y2="850.9" stroke="#d6c6ee" stroke-width="1.1" stroke-linecap="round" opacity="0.17"/><line x1="-270.1" y1="-120.2" x2="-274.1" y2="-91.9" stroke="#d6c6ee" stroke-width="1.4" stroke-linecap="round" opacity="0.18"/><line x1="-270.1" y1="279.8" x2="-274.1" y2="308.1" stroke="#d6c6ee" stroke-width="1.4" stroke-linecap="round" opacity="0.19"/><line x1="-270.1" y1="679.8" x2="-274.1" y2="708.1" stroke="#d6c6ee" stroke-width="1.5" stroke-linecap="round" opacity="0.28"/><line x1="129.9" y1="-120.2" x2="125.9" y2="-91.9" stroke="#d6c6ee" stroke-width="1.2" stroke-linecap="round" opacity="0.23"/><line x1="129.9" y1="279.8" x2="125.9" y2="308.1" stroke="#d6c6ee" stroke-width="1.3" stroke-linecap="round" opacity="0.25"/><line x1="129.9" y1="679.8" x2="125.9" y2="708.1" stroke="#d6c6ee" stroke-width="1.0" stroke-linecap="round" opacity="0.17"/><line x1="529.9" y1="-120.2" x2="525.9" y2="-91.9" stroke="#d6c6ee" stroke-width="1.2" stroke-linecap="round" opacity="0.33"/><line x1="529.9" y1="279.8" x2="525.9" y2="308.1" stroke="#d6c6ee" stroke-width="1.2" stroke-linecap="round" opacity="0.14"/><line x1="529.9" y1="679.8" x2="525.9" y2="708.1" stroke="#d6c6ee" stroke-width="1.4" stroke-linecap="round" opacity="0.28"/><line x1="-36.9" y1="-323.4" x2="-44.0" y2="-273.1" stroke="#d6c6ee" stroke-width="0.8" stroke-linecap="round" opacity="0.26"/><line x1="-36.9" y1="76.6" x2="-44.0" y2="126.9" stroke="#d6c6ee" stroke-width="1.0" stroke-linecap="round" opacity="0.17"/><line x1="-36.9" y1="476.6" x2="-44.0" y2="526.9" stroke="#d6c6ee" stroke-width="1.4" stroke-linecap="round" opacity="0.14"/><line x1="363.1" y1="-323.4" x2="356.0" y2="-273.1" stroke="#d6c6ee" stroke-width="1.2" stroke-linecap="round" opacity="0.31"/><line x1="363.1" y1="76.6" x2="356.0" y2="126.9" stroke="#d6c6ee" stroke-width="1.0" stroke-linecap="round" opacity="0.17"/><line x1="363.1" y1="476.6" x2="356.0" y2="526.9" stroke="#d6c6ee" stroke-width="1.4" stroke-linecap="round" opacity="0.21"/><line x1="763.1" y1="-323.4" x2="756.0" y2="-273.1" stroke="#d6c6ee" stroke-width="1.3" stroke-linecap="round" opacity="0.13"/><line x1="763.1" y1="76.6" x2="756.0" y2="126.9" stroke="#d6c6ee" stroke-width="1.1" stroke-linecap="round" opacity="0.16"/><line x1="763.1" y1="476.6" x2="756.0" y2="526.9" stroke="#d6c6ee" stroke-width="1.3" stroke-linecap="round" opacity="0.14"/><line x1="-18.2" y1="-389.9" x2="-25.1" y2="-340.1" stroke="#d6c6ee" stroke-width="0.8" stroke-linecap="round" opacity="0.18"/><line x1="-18.2" y1="10.1" x2="-25.1" y2="59.9" stroke="#d6c6ee" stroke-width="1.4" stroke-linecap="round" opacity="0.15"/><line x1="-18.2" y1="410.1" x2="-25.1" y2="459.9" stroke="#d6c6ee" stroke-width="0.9" stroke-linecap="round" opacity="0.27"/><line x1="381.8" y1="-389.9" x2="374.9" y2="-340.1" stroke="#d6c6ee" stroke-width="1.1" stroke-linecap="round" opacity="0.13"/><line x1="381.8" y1="10.1" x2="374.9" y2="59.9" stroke="#d6c6ee" stroke-width="1.5" stroke-linecap="round" opacity="0.15"/><line x1="381.8" y1="410.1" x2="374.9" y2="459.9" stroke="#d6c6ee" stroke-width="0.8" stroke-linecap="round" opacity="0.20"/><line x1="781.8" y1="-389.9" x2="774.9" y2="-340.1" stroke="#d6c6ee" stroke-width="1.2" stroke-linecap="round" opacity="0.28"/><line x1="781.8" y1="10.1" x2="774.9" y2="59.9" stroke="#d6c6ee" stroke-width="0.9" stroke-linecap="round" opacity="0.19"/><line x1="781.8" y1="410.1" x2="774.9" y2="459.9" stroke="#d6c6ee" stroke-width="0.8" stroke-linecap="round" opacity="0.22"/><line x1="-93.6" y1="-104.0" x2="-101.5" y2="-47.7" stroke="#d6c6ee" stroke-width="1.3" stroke-linecap="round" opacity="0.31"/><line x1="-93.6" y1="296.0" x2="-101.5" y2="352.3" stroke="#d6c6ee" stroke-width="1.3" stroke-linecap="round" opacity="0.22"/><line x1="-93.6" y1="696.0" x2="-101.5" y2="752.3" stroke="#d6c6ee" stroke-width="1.0" stroke-linecap="round" opacity="0.27"/><line x1="306.4" y1="-104.0" x2="298.5" y2="-47.7" stroke="#d6c6ee" stroke-width="1.0" stroke-linecap="round" opacity="0.14"/><line x1="306.4" y1="296.0" x2="298.5" y2="352.3" stroke="#d6c6ee" stroke-width="1.1" stroke-linecap="round" opacity="0.31"/><line x1="306.4" y1="696.0" x2="298.5" y2="752.3" stroke="#d6c6ee" stroke-width="0.9" stroke-linecap="round" opacity="0.25"/><line x1="706.4" y1="-104.0" x2="698.5" y2="-47.7" stroke="#d6c6ee" stroke-width="1.1" stroke-linecap="round" opacity="0.23"/><line x1="706.4" y1="296.0" x2="698.5" y2="352.3" stroke="#d6c6ee" stroke-width="0.9" stroke-linecap="round" opacity="0.33"/><line x1="706.4" y1="696.0" x2="698.5" y2="752.3" stroke="#d6c6ee" stroke-width="1.0" stroke-linecap="round" opacity="0.25"/><line x1="-232.1" y1="-392.8" x2="-238.1" y2="-349.6" stroke="#d6c6ee" stroke-width="0.9" stroke-linecap="round" opacity="0.13"/><line x1="-232.1" y1="7.2" x2="-238.1" y2="50.4" stroke="#d6c6ee" stroke-width="0.8" stroke-linecap="round" opacity="0.16"/><line x1="-232.1" y1="407.2" x2="-238.1" y2="450.4" stroke="#d6c6ee" stroke-width="0.9" stroke-linecap="round" opacity="0.26"/><line x1="167.9" y1="-392.8" x2="161.9" y2="-349.6" stroke="#d6c6ee" stroke-width="1.2" stroke-linecap="round" opacity="0.34"/><line x1="167.9" y1="7.2" x2="161.9" y2="50.4" stroke="#d6c6ee" stroke-width="1.5" stroke-linecap="round" opacity="0.34"/><line x1="167.9" y1="407.2" x2="161.9" y2="450.4" stroke="#d6c6ee" stroke-width="1.0" stroke-linecap="round" opacity="0.22"/><line x1="567.9" y1="-392.8" x2="561.9" y2="-349.6" stroke="#d6c6ee" stroke-width="1.0" stroke-linecap="round" opacity="0.25"/><line x1="567.9" y1="7.2" x2="561.9" y2="50.4" stroke="#d6c6ee" stroke-width="1.2" stroke-linecap="round" opacity="0.30"/><line x1="567.9" y1="407.2" x2="561.9" y2="450.4" stroke="#d6c6ee" stroke-width="1.3" stroke-linecap="round" opacity="0.18"/><line x1="-230.8" y1="-189.5" x2="-233.9" y2="-167.3" stroke="#d6c6ee" stroke-width="0.8" stroke-linecap="round" opacity="0.21"/><line x1="-230.8" y1="210.5" x2="-233.9" y2="232.7" stroke="#d6c6ee" stroke-width="0.9" stroke-linecap="round" opacity="0.28"/><line x1="-230.8" y1="610.5" x2="-233.9" y2="632.7" stroke="#d6c6ee" stroke-width="1.0" stroke-linecap="round" opacity="0.14"/><line x1="169.2" y1="-189.5" x2="166.1" y2="-167.3" stroke="#d6c6ee" stroke-width="0.9" stroke-linecap="round" opacity="0.17"/><line x1="169.2" y1="210.5" x2="166.1" y2="232.7" stroke="#d6c6ee" stroke-width="1.0" stroke-linecap="round" opacity="0.23"/><line x1="169.2" y1="610.5" x2="166.1" y2="632.7" stroke="#d6c6ee" stroke-width="1.1" stroke-linecap="round" opacity="0.19"/><line x1="569.2" y1="-189.5" x2="566.1" y2="-167.3" stroke="#d6c6ee" stroke-width="1.2" stroke-linecap="round" opacity="0.17"/><line x1="569.2" y1="210.5" x2="566.1" y2="232.7" stroke="#d6c6ee" stroke-width="1.4" stroke-linecap="round" opacity="0.33"/><line x1="569.2" y1="610.5" x2="566.1" y2="632.7" stroke="#d6c6ee" stroke-width="1.3" stroke-linecap="round" opacity="0.22"/><line x1="-195.4" y1="-167.6" x2="-198.8" y2="-143.6" stroke="#d6c6ee" stroke-width="1.1" stroke-linecap="round" opacity="0.24"/><line x1="-195.4" y1="232.4" x2="-198.8" y2="256.4" stroke="#d6c6ee" stroke-width="0.9" stroke-linecap="round" opacity="0.14"/><line x1="-195.4" y1="632.4" x2="-198.8" y2="656.4" stroke="#d6c6ee" stroke-width="1.4" stroke-linecap="round" opacity="0.20"/><line x1="204.6" y1="-167.6" x2="201.2" y2="-143.6" stroke="#d6c6ee" stroke-width="1.2" stroke-linecap="round" opacity="0.32"/><line x1="204.6" y1="232.4" x2="201.2" y2="256.4" stroke="#d6c6ee" stroke-width="1.2" stroke-linecap="round" opacity="0.18"/><line x1="204.6" y1="632.4" x2="201.2" y2="656.4" stroke="#d6c6ee" stroke-width="1.5" stroke-linecap="round" opacity="0.20"/><line x1="604.6" y1="-167.6" x2="601.2" y2="-143.6" stroke="#d6c6ee" stroke-width="0.8" stroke-linecap="round" opacity="0.27"/><line x1="604.6" y1="232.4" x2="601.2" y2="256.4" stroke="#d6c6ee" stroke-width="0.9" stroke-linecap="round" opacity="0.19"/><line x1="604.6" y1="632.4" x2="601.2" y2="656.4" stroke="#d6c6ee" stroke-width="1.4" stroke-linecap="round" opacity="0.27"/><line x1="-393.7" y1="-219.4" x2="-399.0" y2="-181.8" stroke="#d6c6ee" stroke-width="1.1" stroke-linecap="round" opacity="0.17"/><line x1="-393.7" y1="180.6" x2="-399.0" y2="218.2" stroke="#d6c6ee" stroke-width="1.2" stroke-linecap="round" opacity="0.14"/><line x1="-393.7" y1="580.6" x2="-399.0" y2="618.2" stroke="#d6c6ee" stroke-width="1.0" stroke-linecap="round" opacity="0.20"/><line x1="6.3" y1="-219.4" x2="1.0" y2="-181.8" stroke="#d6c6ee" stroke-width="1.5" stroke-linecap="round" opacity="0.14"/><line x1="6.3" y1="180.6" x2="1.0" y2="218.2" stroke="#d6c6ee" stroke-width="1.3" stroke-linecap="round" opacity="0.16"/><line x1="6.3" y1="580.6" x2="1.0" y2="618.2" stroke="#d6c6ee" stroke-width="1.2" stroke-linecap="round" opacity="0.21"/><line x1="406.3" y1="-219.4" x2="401.0" y2="-181.8" stroke="#d6c6ee" stroke-width="1.1" stroke-linecap="round" opacity="0.29"/><line x1="406.3" y1="180.6" x2="401.0" y2="218.2" stroke="#d6c6ee" stroke-width="1.1" stroke-linecap="round" opacity="0.15"/><line x1="406.3" y1="580.6" x2="401.0" y2="618.2" stroke="#d6c6ee" stroke-width="0.9" stroke-linecap="round" opacity="0.14"/><line x1="-60.0" y1="-143.6" x2="-68.2" y2="-85.1" stroke="#d6c6ee" stroke-width="1.3" stroke-linecap="round" opacity="0.13"/><line x1="-60.0" y1="256.4" x2="-68.2" y2="314.9" stroke="#d6c6ee" stroke-width="1.3" stroke-linecap="round" opacity="0.29"/><line x1="-60.0" y1="656.4" x2="-68.2" y2="714.9" stroke="#d6c6ee" stroke-width="1.3" stroke-linecap="round" opacity="0.23"/><line x1="340.0" y1="-143.6" x2="331.8" y2="-85.1" stroke="#d6c6ee" stroke-width="1.1" stroke-linecap="round" opacity="0.22"/><line x1="340.0" y1="256.4" x2="331.8" y2="314.9" stroke="#d6c6ee" stroke-width="1.4" stroke-linecap="round" opacity="0.18"/><line x1="340.0" y1="656.4" x2="331.8" y2="714.9" stroke="#d6c6ee" stroke-width="1.2" stroke-linecap="round" opacity="0.23"/><line x1="740.0" y1="-143.6" x2="731.8" y2="-85.1" stroke="#d6c6ee" stroke-width="1.5" stroke-linecap="round" opacity="0.30"/><line x1="740.0" y1="256.4" x2="731.8" y2="314.9" stroke="#d6c6ee" stroke-width="1.5" stroke-linecap="round" opacity="0.30"/><line x1="740.0" y1="656.4" x2="731.8" y2="714.9" stroke="#d6c6ee" stroke-width="1.0" stroke-linecap="round" opacity="0.17"/><line x1="-204.5" y1="-296.2" x2="-209.8" y2="-258.0" stroke="#d6c6ee" stroke-width="1.3" stroke-linecap="round" opacity="0.32"/><line x1="-204.5" y1="103.8" x2="-209.8" y2="142.0" stroke="#d6c6ee" stroke-width="1.2" stroke-linecap="round" opacity="0.30"/><line x1="-204.5" y1="503.8" x2="-209.8" y2="542.0" stroke="#d6c6ee" stroke-width="0.9" stroke-linecap="round" opacity="0.20"/><line x1="195.5" y1="-296.2" x2="190.2" y2="-258.0" stroke="#d6c6ee" stroke-width="1.5" stroke-linecap="round" opacity="0.15"/><line x1="195.5" y1="103.8" x2="190.2" y2="142.0" stroke="#d6c6ee" stroke-width="1.1" stroke-linecap="round" opacity="0.13"/><line x1="195.5" y1="503.8" x2="190.2" y2="542.0" stroke="#d6c6ee" stroke-width="0.9" stroke-linecap="round" opacity="0.32"/><line x1="595.5" y1="-296.2" x2="590.2" y2="-258.0" stroke="#d6c6ee" stroke-width="1.5" stroke-linecap="round" opacity="0.26"/><line x1="595.5" y1="103.8" x2="590.2" y2="142.0" stroke="#d6c6ee" stroke-width="0.9" stroke-linecap="round" opacity="0.19"/><line x1="595.5" y1="503.8" x2="590.2" y2="542.0" stroke="#d6c6ee" stroke-width="1.0" stroke-linecap="round" opacity="0.27"/><line x1="-127.6" y1="-224.5" x2="-133.4" y2="-182.5" stroke="#d6c6ee" stroke-width="0.9" stroke-linecap="round" opacity="0.24"/><line x1="-127.6" y1="175.5" x2="-133.4" y2="217.5" stroke="#d6c6ee" stroke-width="1.5" stroke-linecap="round" opacity="0.29"/><line x1="-127.6" y1="575.5" x2="-133.4" y2="617.5" stroke="#d6c6ee" stroke-width="0.9" stroke-linecap="round" opacity="0.23"/><line x1="272.4" y1="-224.5" x2="266.6" y2="-182.5" stroke="#d6c6ee" stroke-width="1.3" stroke-linecap="round" opacity="0.18"/><line x1="272.4" y1="175.5" x2="266.6" y2="217.5" stroke="#d6c6ee" stroke-width="1.4" stroke-linecap="round" opacity="0.22"/><line x1="272.4" y1="575.5" x2="266.6" y2="617.5" stroke="#d6c6ee" stroke-width="1.3" stroke-linecap="round" opacity="0.21"/><line x1="672.4" y1="-224.5" x2="666.6" y2="-182.5" stroke="#d6c6ee" stroke-width="1.5" stroke-linecap="round" opacity="0.29"/><line x1="672.4" y1="175.5" x2="666.6" y2="217.5" stroke="#d6c6ee" stroke-width="1.2" stroke-linecap="round" opacity="0.15"/><line x1="672.4" y1="575.5" x2="666.6" y2="617.5" stroke="#d6c6ee" stroke-width="1.1" stroke-linecap="round" opacity="0.13"/><line x1="-161.9" y1="-47.3" x2="-166.0" y2="-18.4" stroke="#d6c6ee" stroke-width="1.2" stroke-linecap="round" opacity="0.23"/><line x1="-161.9" y1="352.7" x2="-166.0" y2="381.6" stroke="#d6c6ee" stroke-width="1.1" stroke-linecap="round" opacity="0.28"/><line x1="-161.9" y1="752.7" x2="-166.0" y2="781.6" stroke="#d6c6ee" stroke-width="1.5" stroke-linecap="round" opacity="0.28"/><line x1="238.1" y1="-47.3" x2="234.0" y2="-18.4" stroke="#d6c6ee" stroke-width="1.1" stroke-linecap="round" opacity="0.33"/><line x1="238.1" y1="352.7" x2="234.0" y2="381.6" stroke="#d6c6ee" stroke-width="1.0" stroke-linecap="round" opacity="0.28"/><line x1="238.1" y1="752.7" x2="234.0" y2="781.6" stroke="#d6c6ee" stroke-width="1.3" stroke-linecap="round" opacity="0.29"/><line x1="638.1" y1="-47.3" x2="634.0" y2="-18.4" stroke="#d6c6ee" stroke-width="1.4" stroke-linecap="round" opacity="0.17"/><line x1="638.1" y1="352.7" x2="634.0" y2="381.6" stroke="#d6c6ee" stroke-width="1.2" stroke-linecap="round" opacity="0.21"/><line x1="638.1" y1="752.7" x2="634.0" y2="781.6" stroke="#d6c6ee" stroke-width="1.3" stroke-linecap="round" opacity="0.33"/><line x1="-146.1" y1="-395.4" x2="-151.6" y2="-355.7" stroke="#d6c6ee" stroke-width="1.3" stroke-linecap="round" opacity="0.31"/><line x1="-146.1" y1="4.6" x2="-151.6" y2="44.3" stroke="#d6c6ee" stroke-width="1.3" stroke-linecap="round" opacity="0.30"/><line x1="-146.1" y1="404.6" x2="-151.6" y2="444.3" stroke="#d6c6ee" stroke-width="0.8" stroke-linecap="round" opacity="0.33"/><line x1="253.9" y1="-395.4" x2="248.4" y2="-355.7" stroke="#d6c6ee" stroke-width="1.3" stroke-linecap="round" opacity="0.25"/><line x1="253.9" y1="4.6" x2="248.4" y2="44.3" stroke="#d6c6ee" stroke-width="1.4" stroke-linecap="round" opacity="0.31"/><line x1="253.9" y1="404.6" x2="248.4" y2="444.3" stroke="#d6c6ee" stroke-width="0.9" stroke-linecap="round" opacity="0.30"/><line x1="653.9" y1="-395.4" x2="648.4" y2="-355.7" stroke="#d6c6ee" stroke-width="1.3" stroke-linecap="round" opacity="0.16"/><line x1="653.9" y1="4.6" x2="648.4" y2="44.3" stroke="#d6c6ee" stroke-width="1.3" stroke-linecap="round" opacity="0.25"/><line x1="653.9" y1="404.6" x2="648.4" y2="444.3" stroke="#d6c6ee" stroke-width="0.9" stroke-linecap="round" opacity="0.30"/><line x1="-344.9" y1="-155.1" x2="-350.2" y2="-116.6" stroke="#d6c6ee" stroke-width="1.0" stroke-linecap="round" opacity="0.24"/><line x1="-344.9" y1="244.9" x2="-350.2" y2="283.4" stroke="#d6c6ee" stroke-width="1.1" stroke-linecap="round" opacity="0.17"/><line x1="-344.9" y1="644.9" x2="-350.2" y2="683.4" stroke="#d6c6ee" stroke-width="1.5" stroke-linecap="round" opacity="0.14"/><line x1="55.1" y1="-155.1" x2="49.8" y2="-116.6" stroke="#d6c6ee" stroke-width="0.8" stroke-linecap="round" opacity="0.23"/><line x1="55.1" y1="244.9" x2="49.8" y2="283.4" stroke="#d6c6ee" stroke-width="1.4" stroke-linecap="round" opacity="0.26"/><line x1="55.1" y1="644.9" x2="49.8" y2="683.4" stroke="#d6c6ee" stroke-width="1.3" stroke-linecap="round" opacity="0.23"/><line x1="455.1" y1="-155.1" x2="449.8" y2="-116.6" stroke="#d6c6ee" stroke-width="1.3" stroke-linecap="round" opacity="0.19"/><line x1="455.1" y1="244.9" x2="449.8" y2="283.4" stroke="#d6c6ee" stroke-width="1.0" stroke-linecap="round" opacity="0.23"/><line x1="455.1" y1="644.9" x2="449.8" y2="683.4" stroke="#d6c6ee" stroke-width="0.8" stroke-linecap="round" opacity="0.14"/><line x1="-98.4" y1="-330.5" x2="-105.5" y2="-280.0" stroke="#d6c6ee" stroke-width="1.3" stroke-linecap="round" opacity="0.21"/><line x1="-98.4" y1="69.5" x2="-105.5" y2="120.0" stroke="#d6c6ee" stroke-width="1.3" stroke-linecap="round" opacity="0.29"/><line x1="-98.4" y1="469.5" x2="-105.5" y2="520.0" stroke="#d6c6ee" stroke-width="1.4" stroke-linecap="round" opacity="0.15"/><line x1="301.6" y1="-330.5" x2="294.5" y2="-280.0" stroke="#d6c6ee" stroke-width="0.9" stroke-linecap="round" opacity="0.20"/><line x1="301.6" y1="69.5" x2="294.5" y2="120.0" stroke="#d6c6ee" stroke-width="1.1" stroke-linecap="round" opacity="0.18"/><line x1="301.6" y1="469.5" x2="294.5" y2="520.0" stroke="#d6c6ee" stroke-width="0.8" stroke-linecap="round" opacity="0.24"/><line x1="701.6" y1="-330.5" x2="694.5" y2="-280.0" stroke="#d6c6ee" stroke-width="1.5" stroke-linecap="round" opacity="0.20"/><line x1="701.6" y1="69.5" x2="694.5" y2="120.0" stroke="#d6c6ee" stroke-width="1.2" stroke-linecap="round" opacity="0.20"/><line x1="701.6" y1="469.5" x2="694.5" y2="520.0" stroke="#d6c6ee" stroke-width="1.1" stroke-linecap="round" opacity="0.31"/><line x1="-276.6" y1="-140.4" x2="-282.3" y2="-100.0" stroke="#d6c6ee" stroke-width="1.2" stroke-linecap="round" opacity="0.32"/><line x1="-276.6" y1="259.6" x2="-282.3" y2="300.0" stroke="#d6c6ee" stroke-width="0.9" stroke-linecap="round" opacity="0.30"/><line x1="-276.6" y1="659.6" x2="-282.3" y2="700.0" stroke="#d6c6ee" stroke-width="1.0" stroke-linecap="round" opacity="0.26"/><line x1="123.4" y1="-140.4" x2="117.7" y2="-100.0" stroke="#d6c6ee" stroke-width="1.4" stroke-linecap="round" opacity="0.26"/><line x1="123.4" y1="259.6" x2="117.7" y2="300.0" stroke="#d6c6ee" stroke-width="1.1" stroke-linecap="round" opacity="0.30"/><line x1="123.4" y1="659.6" x2="117.7" y2="700.0" stroke="#d6c6ee" stroke-width="0.9" stroke-linecap="round" opacity="0.26"/><line x1="523.4" y1="-140.4" x2="517.7" y2="-100.0" stroke="#d6c6ee" stroke-width="1.1" stroke-linecap="round" opacity="0.24"/><line x1="523.4" y1="259.6" x2="517.7" y2="300.0" stroke="#d6c6ee" stroke-width="1.4" stroke-linecap="round" opacity="0.30"/><line x1="523.4" y1="659.6" x2="517.7" y2="700.0" stroke="#d6c6ee" stroke-width="1.2" stroke-linecap="round" opacity="0.19"/><line x1="-306.8" y1="-217.0" x2="-311.1" y2="-186.2" stroke="#d6c6ee" stroke-width="1.0" stroke-linecap="round" opacity="0.33"/><line x1="-306.8" y1="183.0" x2="-311.1" y2="213.8" stroke="#d6c6ee" stroke-width="0.9" stroke-linecap="round" opacity="0.30"/><line x1="-306.8" y1="583.0" x2="-311.1" y2="613.8" stroke="#d6c6ee" stroke-width="1.1" stroke-linecap="round" opacity="0.20"/><line x1="93.2" y1="-217.0" x2="88.9" y2="-186.2" stroke="#d6c6ee" stroke-width="1.0" stroke-linecap="round" opacity="0.14"/><line x1="93.2" y1="183.0" x2="88.9" y2="213.8" stroke="#d6c6ee" stroke-width="1.1" stroke-linecap="round" opacity="0.16"/><line x1="93.2" y1="583.0" x2="88.9" y2="613.8" stroke="#d6c6ee" stroke-width="1.1" stroke-linecap="round" opacity="0.18"/><line x1="493.2" y1="-217.0" x2="488.9" y2="-186.2" stroke="#d6c6ee" stroke-width="1.4" stroke-linecap="round" opacity="0.32"/><line x1="493.2" y1="183.0" x2="488.9" y2="213.8" stroke="#d6c6ee" stroke-width="1.1" stroke-linecap="round" opacity="0.26"/><line x1="493.2" y1="583.0" x2="488.9" y2="613.8" stroke="#d6c6ee" stroke-width="1.5" stroke-linecap="round" opacity="0.19"/><line x1="-360.2" y1="-304.9" x2="-364.3" y2="-275.7" stroke="#d6c6ee" stroke-width="1.3" stroke-linecap="round" opacity="0.20"/><line x1="-360.2" y1="95.1" x2="-364.3" y2="124.3" stroke="#d6c6ee" stroke-width="1.0" stroke-linecap="round" opacity="0.29"/><line x1="-360.2" y1="495.1" x2="-364.3" y2="524.3" stroke="#d6c6ee" stroke-width="1.0" stroke-linecap="round" opacity="0.30"/><line x1="39.8" y1="-304.9" x2="35.7" y2="-275.7" stroke="#d6c6ee" stroke-width="1.2" stroke-linecap="round" opacity="0.21"/><line x1="39.8" y1="95.1" x2="35.7" y2="124.3" stroke="#d6c6ee" stroke-width="1.4" stroke-linecap="round" opacity="0.20"/><line x1="39.8" y1="495.1" x2="35.7" y2="524.3" stroke="#d6c6ee" stroke-width="1.4" stroke-linecap="round" opacity="0.32"/><line x1="439.8" y1="-304.9" x2="435.7" y2="-275.7" stroke="#d6c6ee" stroke-width="1.2" stroke-linecap="round" opacity="0.27"/><line x1="439.8" y1="95.1" x2="435.7" y2="124.3" stroke="#d6c6ee" stroke-width="1.5" stroke-linecap="round" opacity="0.28"/><line x1="439.8" y1="495.1" x2="435.7" y2="524.3" stroke="#d6c6ee" stroke-width="1.3" stroke-linecap="round" opacity="0.31"/><line x1="-25.8" y1="-98.6" x2="-34.1" y2="-39.4" stroke="#d6c6ee" stroke-width="1.0" stroke-linecap="round" opacity="0.26"/><line x1="-25.8" y1="301.4" x2="-34.1" y2="360.6" stroke="#d6c6ee" stroke-width="1.3" stroke-linecap="round" opacity="0.20"/><line x1="-25.8" y1="701.4" x2="-34.1" y2="760.6" stroke="#d6c6ee" stroke-width="1.1" stroke-linecap="round" opacity="0.16"/><line x1="374.2" y1="-98.6" x2="365.9" y2="-39.4" stroke="#d6c6ee" stroke-width="1.5" stroke-linecap="round" opacity="0.20"/><line x1="374.2" y1="301.4" x2="365.9" y2="360.6" stroke="#d6c6ee" stroke-width="1.1" stroke-linecap="round" opacity="0.32"/><line x1="374.2" y1="701.4" x2="365.9" y2="760.6" stroke="#d6c6ee" stroke-width="0.9" stroke-linecap="round" opacity="0.33"/><line x1="774.2" y1="-98.6" x2="765.9" y2="-39.4" stroke="#d6c6ee" stroke-width="0.9" stroke-linecap="round" opacity="0.13"/><line x1="774.2" y1="301.4" x2="765.9" y2="360.6" stroke="#d6c6ee" stroke-width="1.0" stroke-linecap="round" opacity="0.20"/><line x1="774.2" y1="701.4" x2="765.9" y2="760.6" stroke="#d6c6ee" stroke-width="1.4" stroke-linecap="round" opacity="0.31"/><line x1="-95.4" y1="-225.4" x2="-101.3" y2="-182.8" stroke="#d6c6ee" stroke-width="1.0" stroke-linecap="round" opacity="0.30"/><line x1="-95.4" y1="174.6" x2="-101.3" y2="217.2" stroke="#d6c6ee" stroke-width="1.1" stroke-linecap="round" opacity="0.18"/><line x1="-95.4" y1="574.6" x2="-101.3" y2="617.2" stroke="#d6c6ee" stroke-width="1.2" stroke-linecap="round" opacity="0.15"/><line x1="304.6" y1="-225.4" x2="298.7" y2="-182.8" stroke="#d6c6ee" stroke-width="1.0" stroke-linecap="round" opacity="0.32"/><line x1="304.6" y1="174.6" x2="298.7" y2="217.2" stroke="#d6c6ee" stroke-width="0.9" stroke-linecap="round" opacity="0.15"/><line x1="304.6" y1="574.6" x2="298.7" y2="617.2" stroke="#d6c6ee" stroke-width="0.9" stroke-linecap="round" opacity="0.18"/><line x1="704.6" y1="-225.4" x2="698.7" y2="-182.8" stroke="#d6c6ee" stroke-width="1.1" stroke-linecap="round" opacity="0.18"/><line x1="704.6" y1="174.6" x2="698.7" y2="217.2" stroke="#d6c6ee" stroke-width="1.0" stroke-linecap="round" opacity="0.17"/><line x1="704.6" y1="574.6" x2="698.7" y2="617.2" stroke="#d6c6ee" stroke-width="1.0" stroke-linecap="round" opacity="0.25"/><line x1="-265.4" y1="-250.9" x2="-272.6" y2="-199.7" stroke="#d6c6ee" stroke-width="0.8" stroke-linecap="round" opacity="0.15"/><line x1="-265.4" y1="149.1" x2="-272.6" y2="200.3" stroke="#d6c6ee" stroke-width="1.4" stroke-linecap="round" opacity="0.21"/><line x1="-265.4" y1="549.1" x2="-272.6" y2="600.3" stroke="#d6c6ee" stroke-width="1.3" stroke-linecap="round" opacity="0.15"/><line x1="134.6" y1="-250.9" x2="127.4" y2="-199.7" stroke="#d6c6ee" stroke-width="1.2" stroke-linecap="round" opacity="0.31"/><line x1="134.6" y1="149.1" x2="127.4" y2="200.3" stroke="#d6c6ee" stroke-width="1.0" stroke-linecap="round" opacity="0.29"/><line x1="134.6" y1="549.1" x2="127.4" y2="600.3" stroke="#d6c6ee" stroke-width="1.2" stroke-linecap="round" opacity="0.21"/><line x1="534.6" y1="-250.9" x2="527.4" y2="-199.7" stroke="#d6c6ee" stroke-width="1.5" stroke-linecap="round" opacity="0.21"/><line x1="534.6" y1="149.1" x2="527.4" y2="200.3" stroke="#d6c6ee" stroke-width="1.1" stroke-linecap="round" opacity="0.26"/><line x1="534.6" y1="549.1" x2="527.4" y2="600.3" stroke="#d6c6ee" stroke-width="1.0" stroke-linecap="round" opacity="0.30"/><line x1="-161.0" y1="-164.8" x2="-166.9" y2="-122.3" stroke="#d6c6ee" stroke-width="1.5" stroke-linecap="round" opacity="0.34"/><line x1="-161.0" y1="235.2" x2="-166.9" y2="277.7" stroke="#d6c6ee" stroke-width="1.4" stroke-linecap="round" opacity="0.22"/><line x1="-161.0" y1="635.2" x2="-166.9" y2="677.7" stroke="#d6c6ee" stroke-width="1.1" stroke-linecap="round" opacity="0.24"/><line x1="239.0" y1="-164.8" x2="233.1" y2="-122.3" stroke="#d6c6ee" stroke-width="0.8" stroke-linecap="round" opacity="0.14"/><line x1="239.0" y1="235.2" x2="233.1" y2="277.7" stroke="#d6c6ee" stroke-width="1.5" stroke-linecap="round" opacity="0.15"/><line x1="239.0" y1="635.2" x2="233.1" y2="677.7" stroke="#d6c6ee" stroke-width="1.5" stroke-linecap="round" opacity="0.27"/><line x1="639.0" y1="-164.8" x2="633.1" y2="-122.3" stroke="#d6c6ee" stroke-width="1.4" stroke-linecap="round" opacity="0.14"/><line x1="639.0" y1="235.2" x2="633.1" y2="277.7" stroke="#d6c6ee" stroke-width="1.0" stroke-linecap="round" opacity="0.30"/><line x1="639.0" y1="635.2" x2="633.1" y2="677.7" stroke="#d6c6ee" stroke-width="0.8" stroke-linecap="round" opacity="0.14"/><line x1="-259.7" y1="-330.7" x2="-263.6" y2="-303.2" stroke="#d6c6ee" stroke-width="1.3" stroke-linecap="round" opacity="0.14"/><line x1="-259.7" y1="69.3" x2="-263.6" y2="96.8" stroke="#d6c6ee" stroke-width="1.5" stroke-linecap="round" opacity="0.26"/><line x1="-259.7" y1="469.3" x2="-263.6" y2="496.8" stroke="#d6c6ee" stroke-width="0.8" stroke-linecap="round" opacity="0.32"/><line x1="140.3" y1="-330.7" x2="136.4" y2="-303.2" stroke="#d6c6ee" stroke-width="1.0" stroke-linecap="round" opacity="0.23"/><line x1="140.3" y1="69.3" x2="136.4" y2="96.8" stroke="#d6c6ee" stroke-width="1.2" stroke-linecap="round" opacity="0.15"/><line x1="140.3" y1="469.3" x2="136.4" y2="496.8" stroke="#d6c6ee" stroke-width="1.2" stroke-linecap="round" opacity="0.13"/><line x1="540.3" y1="-330.7" x2="536.4" y2="-303.2" stroke="#d6c6ee" stroke-width="0.9" stroke-linecap="round" opacity="0.32"/><line x1="540.3" y1="69.3" x2="536.4" y2="96.8" stroke="#d6c6ee" stroke-width="1.4" stroke-linecap="round" opacity="0.24"/><line x1="540.3" y1="469.3" x2="536.4" y2="496.8" stroke="#d6c6ee" stroke-width="1.3" stroke-linecap="round" opacity="0.31"/><line x1="-344.0" y1="-203.2" x2="-347.8" y2="-176.2" stroke="#d6c6ee" stroke-width="0.9" stroke-linecap="round" opacity="0.14"/><line x1="-344.0" y1="196.8" x2="-347.8" y2="223.8" stroke="#d6c6ee" stroke-width="0.9" stroke-linecap="round" opacity="0.13"/><line x1="-344.0" y1="596.8" x2="-347.8" y2="623.8" stroke="#d6c6ee" stroke-width="1.0" stroke-linecap="round" opacity="0.20"/><line x1="56.0" y1="-203.2" x2="52.2" y2="-176.2" stroke="#d6c6ee" stroke-width="1.2" stroke-linecap="round" opacity="0.31"/><line x1="56.0" y1="196.8" x2="52.2" y2="223.8" stroke="#d6c6ee" stroke-width="1.4" stroke-linecap="round" opacity="0.28"/><line x1="56.0" y1="596.8" x2="52.2" y2="623.8" stroke="#d6c6ee" stroke-width="1.2" stroke-linecap="round" opacity="0.32"/><line x1="456.0" y1="-203.2" x2="452.2" y2="-176.2" stroke="#d6c6ee" stroke-width="0.9" stroke-linecap="round" opacity="0.14"/><line x1="456.0" y1="196.8" x2="452.2" y2="223.8" stroke="#d6c6ee" stroke-width="1.4" stroke-linecap="round" opacity="0.26"/><line x1="456.0" y1="596.8" x2="452.2" y2="623.8" stroke="#d6c6ee" stroke-width="0.9" stroke-linecap="round" opacity="0.20"/><line x1="-281.0" y1="-227.7" x2="-286.4" y2="-189.4" stroke="#d6c6ee" stroke-width="1.1" stroke-linecap="round" opacity="0.30"/><line x1="-281.0" y1="172.3" x2="-286.4" y2="210.6" stroke="#d6c6ee" stroke-width="1.4" stroke-linecap="round" opacity="0.24"/><line x1="-281.0" y1="572.3" x2="-286.4" y2="610.6" stroke="#d6c6ee" stroke-width="1.1" stroke-linecap="round" opacity="0.18"/><line x1="119.0" y1="-227.7" x2="113.6" y2="-189.4" stroke="#d6c6ee" stroke-width="1.3" stroke-linecap="round" opacity="0.34"/><line x1="119.0" y1="172.3" x2="113.6" y2="210.6" stroke="#d6c6ee" stroke-width="1.0" stroke-linecap="round" opacity="0.27"/><line x1="119.0" y1="572.3" x2="113.6" y2="610.6" stroke="#d6c6ee" stroke-width="1.3" stroke-linecap="round" opacity="0.26"/><line x1="519.0" y1="-227.7" x2="513.6" y2="-189.4" stroke="#d6c6ee" stroke-width="0.8" stroke-linecap="round" opacity="0.24"/><line x1="519.0" y1="172.3" x2="513.6" y2="210.6" stroke="#d6c6ee" stroke-width="0.9" stroke-linecap="round" opacity="0.16"/><line x1="519.0" y1="572.3" x2="513.6" y2="610.6" stroke="#d6c6ee" stroke-width="1.2" stroke-linecap="round" opacity="0.26"/><line x1="-149.8" y1="-103.1" x2="-156.6" y2="-54.4" stroke="#d6c6ee" stroke-width="1.1" stroke-linecap="round" opacity="0.13"/><line x1="-149.8" y1="296.9" x2="-156.6" y2="345.6" stroke="#d6c6ee" stroke-width="1.3" stroke-linecap="round" opacity="0.30"/><line x1="-149.8" y1="696.9" x2="-156.6" y2="745.6" stroke="#d6c6ee" stroke-width="1.4" stroke-linecap="round" opacity="0.25"/><line x1="250.2" y1="-103.1" x2="243.4" y2="-54.4" stroke="#d6c6ee" stroke-width="0.8" stroke-linecap="round" opacity="0.16"/><line x1="250.2" y1="296.9" x2="243.4" y2="345.6" stroke="#d6c6ee" stroke-width="0.9" stroke-linecap="round" opacity="0.26"/><line x1="250.2" y1="696.9" x2="243.4" y2="745.6" stroke="#d6c6ee" stroke-width="1.2" stroke-linecap="round" opacity="0.16"/><line x1="650.2" y1="-103.1" x2="643.4" y2="-54.4" stroke="#d6c6ee" stroke-width="1.5" stroke-linecap="round" opacity="0.34"/><line x1="650.2" y1="296.9" x2="643.4" y2="345.6" stroke="#d6c6ee" stroke-width="1.4" stroke-linecap="round" opacity="0.22"/><line x1="650.2" y1="696.9" x2="643.4" y2="745.6" stroke="#d6c6ee" stroke-width="1.0" stroke-linecap="round" opacity="0.17"/><line x1="-70.4" y1="-119.6" x2="-74.9" y2="-87.1" stroke="#d6c6ee" stroke-width="1.4" stroke-linecap="round" opacity="0.25"/><line x1="-70.4" y1="280.4" x2="-74.9" y2="312.9" stroke="#d6c6ee" stroke-width="1.1" stroke-linecap="round" opacity="0.21"/><line x1="-70.4" y1="680.4" x2="-74.9" y2="712.9" stroke="#d6c6ee" stroke-width="1.3" stroke-linecap="round" opacity="0.22"/><line x1="329.6" y1="-119.6" x2="325.1" y2="-87.1" stroke="#d6c6ee" stroke-width="1.3" stroke-linecap="round" opacity="0.15"/><line x1="329.6" y1="280.4" x2="325.1" y2="312.9" stroke="#d6c6ee" stroke-width="1.3" stroke-linecap="round" opacity="0.18"/><line x1="329.6" y1="680.4" x2="325.1" y2="712.9" stroke="#d6c6ee" stroke-width="1.4" stroke-linecap="round" opacity="0.17"/><line x1="729.6" y1="-119.6" x2="725.1" y2="-87.1" stroke="#d6c6ee" stroke-width="1.0" stroke-linecap="round" opacity="0.24"/><line x1="729.6" y1="280.4" x2="725.1" y2="312.9" stroke="#d6c6ee" stroke-width="1.1" stroke-linecap="round" opacity="0.24"/><line x1="729.6" y1="680.4" x2="725.1" y2="712.9" stroke="#d6c6ee" stroke-width="1.4" stroke-linecap="round" opacity="0.16"/><line x1="-91.1" y1="-122.7" x2="-98.4" y2="-70.8" stroke="#d6c6ee" stroke-width="1.1" stroke-linecap="round" opacity="0.22"/><line x1="-91.1" y1="277.3" x2="-98.4" y2="329.2" stroke="#d6c6ee" stroke-width="1.0" stroke-linecap="round" opacity="0.22"/><line x1="-91.1" y1="677.3" x2="-98.4" y2="729.2" stroke="#d6c6ee" stroke-width="1.0" stroke-linecap="round" opacity="0.16"/><line x1="308.9" y1="-122.7" x2="301.6" y2="-70.8" stroke="#d6c6ee" stroke-width="1.1" stroke-linecap="round" opacity="0.16"/><line x1="308.9" y1="277.3" x2="301.6" y2="329.2" stroke="#d6c6ee" stroke-width="1.1" stroke-linecap="round" opacity="0.25"/><line x1="308.9" y1="677.3" x2="301.6" y2="729.2" stroke="#d6c6ee" stroke-width="1.0" stroke-linecap="round" opacity="0.16"/><line x1="708.9" y1="-122.7" x2="701.6" y2="-70.8" stroke="#d6c6ee" stroke-width="1.2" stroke-linecap="round" opacity="0.31"/><line x1="708.9" y1="277.3" x2="701.6" y2="329.2" stroke="#d6c6ee" stroke-width="1.0" stroke-linecap="round" opacity="0.26"/><line x1="708.9" y1="677.3" x2="701.6" y2="729.2" stroke="#d6c6ee" stroke-width="1.3" stroke-linecap="round" opacity="0.31"/><line x1="-127.1" y1="-276.9" x2="-131.3" y2="-247.0" stroke="#d6c6ee" stroke-width="1.4" stroke-linecap="round" opacity="0.19"/><line x1="-127.1" y1="123.1" x2="-131.3" y2="153.0" stroke="#d6c6ee" stroke-width="0.8" stroke-linecap="round" opacity="0.31"/><line x1="-127.1" y1="523.1" x2="-131.3" y2="553.0" stroke="#d6c6ee" stroke-width="0.9" stroke-linecap="round" opacity="0.19"/><line x1="272.9" y1="-276.9" x2="268.7" y2="-247.0" stroke="#d6c6ee" stroke-width="1.0" stroke-linecap="round" opacity="0.18"/><line x1="272.9" y1="123.1" x2="268.7" y2="153.0" stroke="#d6c6ee" stroke-width="1.3" stroke-linecap="round" opacity="0.20"/><line x1="272.9" y1="523.1" x2="268.7" y2="553.0" stroke="#d6c6ee" stroke-width="1.1" stroke-linecap="round" opacity="0.21"/><line x1="672.9" y1="-276.9" x2="668.7" y2="-247.0" stroke="#d6c6ee" stroke-width="1.4" stroke-linecap="round" opacity="0.12"/><line x1="672.9" y1="123.1" x2="668.7" y2="153.0" stroke="#d6c6ee" stroke-width="1.2" stroke-linecap="round" opacity="0.15"/><line x1="672.9" y1="523.1" x2="668.7" y2="553.0" stroke="#d6c6ee" stroke-width="0.9" stroke-linecap="round" opacity="0.25"/><line x1="-249.7" y1="-374.1" x2="-255.9" y2="-329.7" stroke="#d6c6ee" stroke-width="1.4" stroke-linecap="round" opacity="0.26"/><line x1="-249.7" y1="25.9" x2="-255.9" y2="70.3" stroke="#d6c6ee" stroke-width="1.1" stroke-linecap="round" opacity="0.30"/><line x1="-249.7" y1="425.9" x2="-255.9" y2="470.3" stroke="#d6c6ee" stroke-width="1.4" stroke-linecap="round" opacity="0.15"/><line x1="150.3" y1="-374.1" x2="144.1" y2="-329.7" stroke="#d6c6ee" stroke-width="1.0" stroke-linecap="round" opacity="0.33"/><line x1="150.3" y1="25.9" x2="144.1" y2="70.3" stroke="#d6c6ee" stroke-width="1.4" stroke-linecap="round" opacity="0.16"/><line x1="150.3" y1="425.9" x2="144.1" y2="470.3" stroke="#d6c6ee" stroke-width="1.3" stroke-linecap="round" opacity="0.31"/><line x1="550.3" y1="-374.1" x2="544.1" y2="-329.7" stroke="#d6c6ee" stroke-width="1.2" stroke-linecap="round" opacity="0.27"/><line x1="550.3" y1="25.9" x2="544.1" y2="70.3" stroke="#d6c6ee" stroke-width="1.2" stroke-linecap="round" opacity="0.17"/><line x1="550.3" y1="425.9" x2="544.1" y2="470.3" stroke="#d6c6ee" stroke-width="0.9" stroke-linecap="round" opacity="0.13"/><line x1="-133.7" y1="-344.7" x2="-140.1" y2="-299.0" stroke="#d6c6ee" stroke-width="1.1" stroke-linecap="round" opacity="0.22"/><line x1="-133.7" y1="55.3" x2="-140.1" y2="101.0" stroke="#d6c6ee" stroke-width="1.5" stroke-linecap="round" opacity="0.21"/><line x1="-133.7" y1="455.3" x2="-140.1" y2="501.0" stroke="#d6c6ee" stroke-width="1.1" stroke-linecap="round" opacity="0.20"/><line x1="266.3" y1="-344.7" x2="259.9" y2="-299.0" stroke="#d6c6ee" stroke-width="1.0" stroke-linecap="round" opacity="0.17"/><line x1="266.3" y1="55.3" x2="259.9" y2="101.0" stroke="#d6c6ee" stroke-width="1.2" stroke-linecap="round" opacity="0.30"/><line x1="266.3" y1="455.3" x2="259.9" y2="501.0" stroke="#d6c6ee" stroke-width="0.9" stroke-linecap="round" opacity="0.33"/><line x1="666.3" y1="-344.7" x2="659.9" y2="-299.0" stroke="#d6c6ee" stroke-width="1.3" stroke-linecap="round" opacity="0.13"/><line x1="666.3" y1="55.3" x2="659.9" y2="101.0" stroke="#d6c6ee" stroke-width="1.3" stroke-linecap="round" opacity="0.21"/><line x1="666.3" y1="455.3" x2="659.9" y2="501.0" stroke="#d6c6ee" stroke-width="1.2" stroke-linecap="round" opacity="0.14"/></svg>